<svg width="50" height="50" viewBox="0 0 50 50" fill="none" xmlns="http://www.w3.org/2000/svg">
<path d="M33.333 8.3335H16.6663C12.064 8.3335 8.33301 12.0645 8.33301 16.6668V33.3335C8.33301 37.9359 12.064 41.6668 16.6663 41.6668H33.333C37.9354 41.6668 41.6663 37.9359 41.6663 33.3335V16.6668C41.6663 12.0645 37.9354 8.3335 33.333 8.3335Z" stroke="#333333" stroke-width="3" stroke-linecap="round" stroke-linejoin="round"/>
<path d="M25 31.25C28.4518 31.25 31.25 28.4518 31.25 25C31.25 21.5482 28.4518 18.75 25 18.75C21.5482 18.75 18.75 21.5482 18.75 25C18.75 28.4518 21.5482 31.25 25 31.25Z" stroke="#333333" stroke-width="3" stroke-linecap="round" stroke-linejoin="round"/>
<path d="M34.375 15.625V15.626" stroke="#333333" stroke-width="3" stroke-linecap="round" stroke-linejoin="round"/>
</svg>
