<svg width="50" height="50" viewBox="0 0 50 50" fill="none" xmlns="http://www.w3.org/2000/svg">
<path d="M6.25 43.75L9.6875 35.8333C7.05763 32.1001 5.88056 27.5355 6.37718 22.996C6.8738 18.4566 9.00997 14.2545 12.3848 11.1782C15.7596 8.10188 20.1411 6.36294 24.707 6.2877C29.2729 6.21247 33.7094 7.8061 37.1837 10.7695C40.6581 13.7329 42.9315 17.8624 43.5775 22.3831C44.2234 26.9037 43.1973 31.5046 40.6919 35.3224C38.1864 39.1403 34.3738 41.9125 29.9696 43.119C25.5653 44.3254 20.8721 43.8831 16.7708 41.875L6.25 43.75" stroke="#333333" stroke-width="3" stroke-linecap="round" stroke-linejoin="round"/>
<path d="M18.75 20.8335C18.75 21.1098 18.8597 21.3747 19.0551 21.5701C19.2504 21.7654 19.5154 21.8752 19.7917 21.8752C20.0679 21.8752 20.3329 21.7654 20.5282 21.5701C20.7236 21.3747 20.8333 21.1098 20.8333 20.8335V18.7502C20.8333 18.4739 20.7236 18.2089 20.5282 18.0136C20.3329 17.8182 20.0679 17.7085 19.7917 17.7085C19.5154 17.7085 19.2504 17.8182 19.0551 18.0136C18.8597 18.2089 18.75 18.4739 18.75 18.7502V20.8335ZM18.75 20.8335C18.75 23.5962 19.8475 26.2457 21.801 28.1992C23.7545 30.1527 26.404 31.2502 29.1667 31.2502H31.25C31.5263 31.2502 31.7912 31.1404 31.9866 30.9451C32.1819 30.7497 32.2917 30.4848 32.2917 30.2085C32.2917 29.9322 32.1819 29.6673 31.9866 29.4719C31.7912 29.2766 31.5263 29.1668 31.25 29.1668H29.1667C28.8904 29.1668 28.6254 29.2766 28.4301 29.4719C28.2347 29.6673 28.125 29.9322 28.125 30.2085C28.125 30.4848 28.2347 30.7497 28.4301 30.9451C28.6254 31.1404 28.8904 31.2502 29.1667 31.2502" stroke="#333333" stroke-width="3" stroke-linecap="round" stroke-linejoin="round"/>
</svg>
